<svg width="50" height="50" viewBox="0 0 50 50" fill="none" xmlns="http://www.w3.org/2000/svg">
<circle cx="25" cy="25" r="25" fill="#DCFCE7"/>
<mask id="mask0_2037_116" style="mask-type:alpha" maskUnits="userSpaceOnUse" x="10" y="10" width="30" height="30">
<rect x="10" y="10" width="30" height="30" fill="#16A31C"/>
</mask>
<g mask="url(#mask0_2037_116)">
<path d="M23.1969 26.6319L20.9687 24.4035C20.6689 24.1037 20.2949 23.9538 19.8465 23.9538C19.3982 23.9538 19.024 24.1037 18.724 24.4035C18.4242 24.7033 18.2773 25.0774 18.2831 25.526C18.2891 25.9743 18.4421 26.3484 18.7419 26.6482L22.0219 29.9282C22.3585 30.2605 22.7513 30.4266 23.2003 30.4266C23.6492 30.4266 24.0399 30.2605 24.3722 29.9282L31.1697 23.1304C31.4697 22.8306 31.6197 22.4594 31.6197 22.0169C31.6197 21.5744 31.4697 21.2033 31.1697 20.9035C30.8699 20.6037 30.4958 20.4538 30.0475 20.4538C29.5991 20.4538 29.2251 20.6037 28.9253 20.9035L23.1969 26.6319ZM25 38.1007C23.1766 38.1007 21.4692 37.7573 19.8778 37.0707C18.2865 36.384 16.9024 35.452 15.7253 34.2747C14.548 33.0976 13.616 31.7135 12.9294 30.1222C12.2427 28.5308 11.8994 26.8234 11.8994 25C11.8994 23.1767 12.2427 21.4693 12.9294 19.8779C13.616 18.2866 14.548 16.9024 15.7253 15.7254C16.9024 14.5481 18.2865 13.6161 19.8778 12.9294C21.4692 12.2427 23.1766 11.8994 25 11.8994C26.8233 11.8994 28.5307 12.2427 30.1222 12.9294C31.7134 13.6161 33.0976 14.5481 34.2747 15.7254C35.452 16.9024 36.3839 18.2866 37.0706 19.8779C37.7573 21.4693 38.1006 23.1767 38.1006 25C38.1006 26.8234 37.7573 28.5308 37.0706 30.1222C36.3839 31.7135 35.452 33.0976 34.2747 34.2747C33.0976 35.452 31.7134 36.384 30.1222 37.0707C28.5307 37.7573 26.8233 38.1007 25 38.1007Z" fill="#16A31C"/>
</g>
</svg>
