<svg width="50" height="50" viewBox="0 0 50 50" fill="none" xmlns="http://www.w3.org/2000/svg">
<circle cx="25" cy="25" r="25" fill="#E9E9E9"/>
<mask id="mask0_2093_155" style="mask-type:alpha" maskUnits="userSpaceOnUse" x="10" y="10" width="30" height="30">
<rect x="10" y="10" width="30" height="30" fill="#16A31C"/>
</mask>
<g mask="url(#mask0_2093_155)">
<path d="M23.1969 26.6319L20.9688 24.4035C20.669 24.1037 20.2949 23.9538 19.8466 23.9538C19.3983 23.9538 19.0241 24.1037 18.7241 24.4035C18.4243 24.7033 18.2773 25.0774 18.2832 25.526C18.2892 25.9743 18.4421 26.3484 18.7419 26.6482L22.0219 29.9282C22.3586 30.2605 22.7514 30.4266 23.2004 30.4266C23.6493 30.4266 24.0399 30.2605 24.3722 29.9282L31.1697 23.1304C31.4697 22.8306 31.6197 22.4594 31.6197 22.0169C31.6197 21.5744 31.4697 21.2033 31.1697 20.9035C30.8699 20.6037 30.4959 20.4538 30.0475 20.4538C29.5992 20.4538 29.2251 20.6037 28.9254 20.9035L23.1969 26.6319ZM25 38.1007C23.1767 38.1007 21.4693 37.7573 19.8779 37.0707C18.2866 36.384 16.9024 35.452 15.7254 34.2747C14.5481 33.0976 13.6161 31.7135 12.9294 30.1222C12.2427 28.5308 11.8994 26.8234 11.8994 25C11.8994 23.1767 12.2427 21.4693 12.9294 19.8779C13.6161 18.2866 14.5481 16.9024 15.7254 15.7254C16.9024 14.5481 18.2866 13.6161 19.8779 12.9294C21.4693 12.2427 23.1767 11.8994 25 11.8994C26.8234 11.8994 28.5308 12.2427 30.1222 12.9294C31.7135 13.6161 33.0976 14.5481 34.2747 15.7254C35.452 16.9024 36.384 18.2866 37.0707 19.8779C37.7573 21.4693 38.1007 23.1767 38.1007 25C38.1007 26.8234 37.7573 28.5308 37.0707 30.1222C36.384 31.7135 35.452 33.0976 34.2747 34.2747C33.0976 35.452 31.7135 36.384 30.1222 37.0707C28.5308 37.7573 26.8234 38.1007 25 38.1007Z" fill="#9F9F9F"/>
</g>
</svg>
