<svg width="48" height="48" viewBox="0 0 48 48" fill="none" xmlns="http://www.w3.org/2000/svg">
<path d="M0 8C0 3.58172 3.58172 0 8 0H40C44.4183 0 48 3.58172 48 8V40C48 44.4183 44.4183 48 40 48H8C3.58172 48 0 44.4183 0 40V8Z" fill="#DCFCE7"/>
<path d="M10 10H37V37H10V10Z" fill="#DCFCE7"/>
<path d="M22.0963 25.5312L19.8681 23.3028C19.5683 23.003 19.1943 22.8531 18.7459 22.8531C18.2976 22.8531 17.9234 23.003 17.6234 23.3028C17.3236 23.6026 17.1767 23.9768 17.1825 24.4253C17.1885 24.8736 17.3415 25.2477 17.6413 25.5475L20.9213 28.8275C21.2579 29.1598 21.6507 29.3259 22.0997 29.3259C22.5486 29.3259 22.9393 29.1598 23.2716 28.8275L30.0691 22.0297C30.3691 21.7299 30.5191 21.3588 30.5191 20.9163C30.5191 20.4738 30.3691 20.1026 30.0691 19.8028C29.7693 19.503 29.3952 19.3531 28.9469 19.3531C28.4985 19.3531 28.1245 19.503 27.8247 19.8028L22.0963 25.5312ZM23.8994 37C22.076 37 20.3686 36.6567 18.7772 35.97C17.1859 35.2833 15.8018 34.3514 14.6247 33.1741C13.4474 31.997 12.5154 30.6128 11.8288 29.0216C11.1421 27.4301 10.7988 25.7227 10.7988 23.8994C10.7988 22.076 11.1421 20.3686 11.8288 18.7772C12.5154 17.1859 13.4474 15.8018 14.6247 14.6247C15.8018 13.4474 17.1859 12.5154 18.7772 11.8288C20.3686 11.1421 22.076 10.7988 23.8994 10.7988C25.7227 10.7988 27.4301 11.1421 29.0216 11.8288C30.6128 12.5154 31.997 13.4474 33.1741 14.6247C34.3514 15.8018 35.2833 17.1859 35.97 18.7772C36.6567 20.3686 37 22.076 37 23.8994C37 25.7227 36.6567 27.4301 35.97 29.0216C35.2833 30.6128 34.3514 31.997 33.1741 33.1741C31.997 34.3514 30.6128 35.2833 29.0216 35.97C27.4301 36.6567 25.7227 37 23.8994 37Z" fill="#16A31C"/>
</svg>
