<svg width="22" height="19" viewBox="0 0 22 19" fill="none" xmlns="http://www.w3.org/2000/svg">
<path d="M8.23993 9.95391H13.76C14.0773 9.95391 14.3474 10.0654 14.5704 10.2884C14.7932 10.5114 14.9046 10.7815 14.9046 11.0987C14.9046 11.4158 14.7932 11.6858 14.5704 11.9088C14.3474 12.1318 14.0773 12.2433 13.76 12.2433H8.23993C7.92269 12.2433 7.65258 12.1318 7.42959 11.9088C7.20679 11.6858 7.09538 11.4158 7.09538 11.0987C7.09538 10.7815 7.20679 10.5114 7.42959 10.2884C7.65258 10.0654 7.92269 9.95391 8.23993 9.95391ZM8.23993 13.2806H13.76C14.0773 13.2806 14.3474 13.3921 14.5704 13.615C14.7932 13.838 14.9046 14.108 14.9046 14.4251C14.9046 14.7423 14.7932 15.0124 14.5704 15.2352C14.3474 15.4581 14.0773 15.5696 13.76 15.5696H8.23993C7.92269 15.5696 7.65258 15.4581 7.42959 15.2352C7.20679 15.0124 7.09538 14.7423 7.09538 14.4251C7.09538 14.108 7.20679 13.838 7.42959 13.615C7.65258 13.3921 7.92269 13.2806 8.23993 13.2806ZM8.23993 16.6224H13.7755C14.0925 16.6224 14.36 16.7313 14.578 16.9493C14.7957 17.167 14.9046 17.4345 14.9046 17.7517C14.9046 18.0688 14.7957 18.3388 14.578 18.5618C14.36 18.7848 14.0925 18.8963 13.7755 18.8963H8.22449C7.90743 18.8963 7.63994 18.7848 7.42201 18.5618C7.20426 18.3388 7.09538 18.0688 7.09538 17.7517C7.09538 17.4345 7.20679 17.167 7.42959 16.9493C7.65258 16.7313 7.92269 16.6224 8.23993 16.6224ZM3.18699 17.4609V10.2296H1.42197C1.08758 10.2296 0.862425 10.074 0.746509 9.7627C0.630773 9.45143 0.697759 9.18899 0.947467 8.97539L9.07816 1.67237C9.34827 1.42284 9.64997 1.23696 9.98328 1.11472C10.3164 0.992669 10.6553 0.931641 11 0.931641C11.3447 0.931641 11.6836 0.992669 12.0167 1.11472C12.35 1.23696 12.6517 1.42284 12.9218 1.67237L21.0525 8.97539C21.3022 9.18899 21.3692 9.45143 21.2535 9.7627C21.1376 10.074 20.9124 10.2296 20.578 10.2296H18.813V17.4609C18.813 17.8597 18.6734 18.1986 18.3943 18.4776C18.1153 18.7567 17.7764 18.8963 17.3776 18.8963C16.9787 18.8963 16.6397 18.7567 16.3606 18.4776C16.0816 18.1986 15.9422 17.8597 15.9422 17.4609V8.90118H6.05782V17.4609C6.05782 17.8597 5.91834 18.1986 5.63938 18.4776C5.36025 18.7567 5.02125 18.8963 4.6224 18.8963C4.22356 18.8963 3.88465 18.7567 3.6057 18.4776C3.32656 18.1986 3.18699 17.8597 3.18699 17.4609Z" fill="#605C65"/>
</svg>
