<svg width="20" height="21" viewBox="0 0 20 21" fill="none" xmlns="http://www.w3.org/2000/svg">
<path d="M0.812744 17.3997V7.92518C0.812744 7.46982 0.912501 7.04018 1.11202 6.63628C1.31135 6.23238 1.59238 5.89546 1.95512 5.62553L8.27122 0.888113C8.7831 0.49721 9.35934 0.301758 9.99995 0.301758C10.6406 0.301758 11.2168 0.49721 11.7287 0.888113L18.0448 5.62553C18.4075 5.89546 18.6886 6.23238 18.8879 6.63628C19.0874 7.04018 19.1872 7.46982 19.1872 7.92518V17.3997C19.1872 18.1996 18.9087 18.878 18.3516 19.4351C17.7946 19.9921 17.1162 20.2706 16.3163 20.2706H13.7245C13.3258 20.2706 12.9869 20.131 12.7077 19.8519C12.4286 19.5727 12.289 19.2338 12.289 18.8352V13.4797C12.289 13.0809 12.1496 12.7419 11.8706 12.4627C11.5915 12.1838 11.2525 12.0443 10.8536 12.0443H9.14629C8.74744 12.0443 8.40845 12.1838 8.12931 12.4627C7.85035 12.7419 7.71087 13.0809 7.71087 13.4797V18.8352C7.71087 19.2338 7.5713 19.5727 7.29216 19.8519C7.01302 20.131 6.67412 20.2706 6.27545 20.2706H3.68358C2.88372 20.2706 2.20528 19.9921 1.64827 19.4351C1.09125 18.878 0.812744 18.1996 0.812744 17.3997Z" fill="#605C65"/>
</svg>
