<svg width="50" height="50" viewBox="0 0 50 50" fill="none" xmlns="http://www.w3.org/2000/svg">
<circle cx="25" cy="25" r="25" fill="#E5D3FF"/>
<mask id="mask0_2093_185" style="mask-type:alpha" maskUnits="userSpaceOnUse" x="10" y="10" width="30" height="30">
<rect x="10" y="10" width="30" height="30" fill="#EF4229"/>
</mask>
<g mask="url(#mask0_2093_185)">
<path d="M25 26.9444L28.3425 30.2866C28.6069 30.5512 28.9309 30.6806 29.3144 30.6747C29.6982 30.6687 30.0222 30.5335 30.2866 30.2691C30.5512 30.0045 30.6835 29.6805 30.6835 29.2969C30.6835 28.9134 30.5512 28.5893 30.2866 28.3247L26.9444 25L30.2866 21.6575C30.5512 21.3932 30.6835 21.0692 30.6835 20.6857C30.6835 20.3019 30.5512 19.9779 30.2866 19.7135C30.0222 19.4489 29.6982 19.3166 29.3144 19.3166C28.9309 19.3166 28.6069 19.4489 28.3425 19.7135L25 23.0557L21.6575 19.7135C21.3932 19.4489 21.0721 19.3166 20.6944 19.3166C20.3167 19.3166 19.9956 19.4489 19.731 19.7135C19.4666 19.9779 19.3344 20.3019 19.3344 20.6857C19.3344 21.0692 19.4666 21.3932 19.731 21.6575L23.0557 25L19.7135 28.3425C19.4489 28.6069 19.3195 28.928 19.3254 29.3057C19.3314 29.6834 19.4666 30.0045 19.731 30.2691C19.9956 30.5335 20.3196 30.6657 20.7032 30.6657C21.0867 30.6657 21.4108 30.5335 21.6754 30.2691L25 26.9444ZM25 38.1007C23.1767 38.1007 21.4693 37.7579 19.8779 37.0722C18.2864 36.3864 16.9016 35.4545 15.7235 34.2766C14.5456 33.0985 13.6137 31.7137 12.9279 30.1222C12.2422 28.5308 11.8994 26.8234 11.8994 25C11.8994 23.1767 12.2422 21.4693 12.9279 19.8779C13.6137 18.2864 14.5456 16.9016 15.7235 15.7235C16.9016 14.5456 18.2864 13.6137 19.8779 12.9279C21.4693 12.2422 23.1767 11.8994 25 11.8994C26.8234 11.8994 28.5308 12.2422 30.1222 12.9279C31.7137 13.6137 33.0985 14.5456 34.2766 15.7235C35.4545 16.9016 36.3864 18.2864 37.0722 19.8779C37.7579 21.4693 38.1007 23.1767 38.1007 25C38.1007 26.8234 37.7579 28.5308 37.0722 30.1222C36.3864 31.7137 35.4545 33.0985 34.2766 34.2766C33.0985 35.4545 31.7137 36.3864 30.1222 37.0722C28.5308 37.7579 26.8234 38.1007 25 38.1007Z" fill="#8131F8"/>
</g>
</svg>
