<svg width="50" height="50" viewBox="0 0 50 50" fill="none" xmlns="http://www.w3.org/2000/svg">
<circle cx="25" cy="25" r="25" fill="#FEF2F2"/>
<mask id="mask0_2037_117" style="mask-type:alpha" maskUnits="userSpaceOnUse" x="10" y="10" width="30" height="30">
<rect x="10" y="10" width="30" height="30" fill="#EF4229"/>
</mask>
<g mask="url(#mask0_2037_117)">
<path d="M25 26.9444L28.3425 30.2866C28.6069 30.5512 28.9308 30.6806 29.3144 30.6747C29.6981 30.6687 30.0222 30.5335 30.2865 30.2691C30.5511 30.0045 30.6834 29.6805 30.6834 29.2969C30.6834 28.9134 30.5511 28.5893 30.2865 28.3247L26.9444 25L30.2865 21.6575C30.5511 21.3932 30.6834 21.0692 30.6834 20.6857C30.6834 20.3019 30.5511 19.9779 30.2865 19.7135C30.0222 19.4489 29.6981 19.3166 29.3144 19.3166C28.9308 19.3166 28.6069 19.4489 28.3425 19.7135L25 23.0557L21.6575 19.7135C21.3931 19.4489 21.0721 19.3166 20.6944 19.3166C20.3166 19.3166 19.9955 19.4489 19.7309 19.7135C19.4665 19.9779 19.3344 20.3019 19.3344 20.6857C19.3344 21.0692 19.4665 21.3932 19.7309 21.6575L23.0556 25L19.7134 28.3425C19.4488 28.6069 19.3195 28.928 19.3253 29.3057C19.3313 29.6834 19.4665 30.0045 19.7309 30.2691C19.9955 30.5335 20.3196 30.6657 20.7031 30.6657C21.0866 30.6657 21.4107 30.5335 21.6753 30.2691L25 26.9444ZM25 38.1007C23.1766 38.1007 21.4692 37.7579 19.8778 37.0722C18.2863 36.3864 16.9015 35.4545 15.7234 34.2766C14.5455 33.0985 13.6136 31.7137 12.9278 30.1222C12.2422 28.5308 11.8994 26.8234 11.8994 25C11.8994 23.1767 12.2422 21.4693 12.9278 19.8779C13.6136 18.2864 14.5455 16.9016 15.7234 15.7235C16.9015 14.5456 18.2863 13.6137 19.8778 12.9279C21.4692 12.2422 23.1766 11.8994 25 11.8994C26.8233 11.8994 28.5307 12.2422 30.1222 12.9279C31.7136 13.6137 33.0984 14.5456 34.2765 15.7235C35.4545 16.9016 36.3863 18.2864 37.0722 19.8779C37.7578 21.4693 38.1006 23.1767 38.1006 25C38.1006 26.8234 37.7578 28.5308 37.0722 30.1222C36.3863 31.7137 35.4545 33.0985 34.2765 34.2766C33.0984 35.4545 31.7136 36.3864 30.1222 37.0722C28.5307 37.7579 26.8233 38.1007 25 38.1007Z" fill="#EF4229"/>
</g>
</svg>
