<svg width="26" height="20" viewBox="0 0 26 20" fill="none" xmlns="http://www.w3.org/2000/svg">
<path d="M6.62247 19.1412C5.69929 19.1412 4.90132 18.8304 4.22857 18.2087C3.55582 17.5869 3.19905 16.8144 3.15824 15.8912H2.0443C1.64546 15.8912 1.30646 15.7517 1.02732 15.4728C0.748366 15.1936 0.608887 14.8547 0.608887 14.4558V3.72972C0.608887 2.92968 0.887394 2.25124 1.44441 1.69441C2.00124 1.13739 2.67968 0.858887 3.47972 0.858887H15.7756C16.5754 0.858887 17.2539 1.13739 17.8109 1.69441C18.3679 2.25124 18.6464 2.92968 18.6464 3.72972V4.96255H20.308C20.7606 4.96255 21.1895 5.06222 21.5947 5.26155C21.9998 5.46107 22.3375 5.7421 22.6076 6.10466L25.0982 9.44187C25.1908 9.56284 25.2628 9.69519 25.314 9.83891C25.3655 9.98263 25.3912 10.1384 25.3912 10.3061V14.4558C25.3912 14.8547 25.2517 15.1936 24.9728 15.4728C24.6936 15.7517 24.3547 15.8912 23.9558 15.8912H22.9643C22.9235 16.8144 22.5667 17.5869 21.894 18.2087C21.2212 18.8304 20.4232 19.1412 19.5001 19.1412C18.5769 19.1412 17.7789 18.8304 17.1062 18.2087C16.4334 17.5869 16.0766 16.8144 16.0358 15.8912H10.0715C10.0307 16.8043 9.67648 17.5743 9.00878 18.2012C8.34109 18.8279 7.54565 19.1412 6.62247 19.1412ZM6.62247 16.7297C6.92941 16.7297 7.18671 16.6259 7.39435 16.4183C7.60198 16.2106 7.7058 15.9533 7.7058 15.6464C7.7058 15.3394 7.60198 15.0822 7.39435 14.8745C7.18671 14.6669 6.92941 14.5631 6.62247 14.5631C6.31553 14.5631 6.05823 14.6669 5.8506 14.8745C5.64296 15.0822 5.53914 15.3394 5.53914 15.6464C5.53914 15.9533 5.64296 16.2106 5.8506 16.4183C6.05823 16.6259 6.31553 16.7297 6.62247 16.7297ZM19.5001 16.7297C19.807 16.7297 20.0643 16.6259 20.2719 16.4183C20.4796 16.2106 20.5834 15.9533 20.5834 15.6464C20.5834 15.3394 20.4796 15.0822 20.2719 14.8745C20.0643 14.6669 19.807 14.5631 19.5001 14.5631C19.1931 14.5631 18.9358 14.6669 18.7282 14.8745C18.5205 15.0822 18.4167 15.3394 18.4167 15.6464C18.4167 15.9533 18.5205 16.2106 18.7282 16.4183C18.9358 16.6259 19.1931 16.7297 19.5001 16.7297ZM18.6464 11.0834H22.7455L20.308 7.83339H18.6464V11.0834Z" fill="#605C65"/>
</svg>
