<svg width="22" height="22" viewBox="0 0 22 22" fill="none" xmlns="http://www.w3.org/2000/svg">
<path d="M1.81279 18.3164V6.15595L0.332689 2.94008C0.165495 2.58763 0.151321 2.223 0.290169 1.84618C0.429196 1.46936 0.680078 1.19736 1.04281 1.03016C1.40537 0.862786 1.77253 0.846625 2.14429 0.981681C2.51606 1.11674 2.78554 1.36563 2.95273 1.72837L4.99211 6.11695H17.0079L19.0473 1.71293C19.2145 1.35038 19.4865 1.10211 19.8633 0.968139C20.2401 0.834347 20.6099 0.855022 20.9726 1.03016C21.3251 1.19736 21.5708 1.46936 21.7098 1.84618C21.8487 2.223 21.8345 2.58763 21.6673 2.94008L20.1872 6.15595V18.3164C20.1872 19.1162 19.9087 19.7947 19.3517 20.3517C18.7947 20.9087 18.1162 21.1872 17.3164 21.1872H4.68363C3.88377 21.1872 3.20533 20.9087 2.64831 20.3517C2.0913 19.7947 1.81279 19.1162 1.81279 18.3164ZM8.83334 13.2057H13.1667C13.5043 13.2057 13.7897 13.0892 14.0228 12.8561C14.2559 12.623 14.3724 12.3376 14.3724 12C14.3724 11.6624 14.2559 11.377 14.0228 11.1439C13.7897 10.9108 13.5043 10.7942 13.1667 10.7942H8.83334C8.4957 10.7942 8.21033 10.9108 7.97723 11.1439C7.74413 11.377 7.62759 11.6624 7.62759 12C7.62759 12.3376 7.74413 12.623 7.97723 12.8561C8.21033 13.0892 8.4957 13.2057 8.83334 13.2057Z" fill="#605C65"/>
</svg>
