<svg width="50" height="50" viewBox="0 0 50 50" fill="none" xmlns="http://www.w3.org/2000/svg">
<circle cx="25" cy="25" r="25" fill="#FFEDD5"/>
<mask id="mask0_2037_118" style="mask-type:alpha" maskUnits="userSpaceOnUse" x="10" y="8" width="30" height="30">
<rect x="10" y="8" width="30" height="30" fill="#FBBC09"/>
</mask>
<g mask="url(#mask0_2037_118)">
<path d="M13.6006 34.5504C13.289 34.5504 13.0095 34.4736 12.7622 34.32C12.5147 34.1667 12.3222 33.9645 12.1847 33.7135C12.0453 33.467 11.9704 33.1985 11.96 32.9079C11.9496 32.6174 12.0245 32.3339 12.1847 32.0572L23.5531 12.375C23.7133 12.0961 23.9254 11.8898 24.1894 11.7563C24.4531 11.6225 24.724 11.5557 25.0019 11.5557C25.2796 11.5557 25.5498 11.6225 25.8125 11.7563C26.0752 11.8898 26.2867 12.0961 26.4469 12.375L37.8153 32.0572C37.9755 32.3339 38.0504 32.6174 38.04 32.9079C38.0296 33.1985 37.9547 33.467 37.8153 33.7135C37.6757 33.9597 37.4828 34.1608 37.2366 34.3166C36.9901 34.4724 36.7111 34.5504 36.3994 34.5504H13.6006ZM25 30.4469C25.3661 30.4469 25.6806 30.3153 25.9438 30.0522C26.2069 29.7891 26.3385 29.4746 26.3385 29.1088C26.3385 28.7427 26.2069 28.4311 25.9438 28.1738C25.6806 27.9167 25.3661 27.7882 25 27.7882C24.634 27.7882 24.3194 27.9167 24.0563 28.1738C23.7931 28.4311 23.6616 28.7427 23.6616 29.1088C23.6616 29.4746 23.7931 29.7891 24.0563 30.0522C24.3194 30.3153 24.634 30.4469 25 30.4469ZM25 26.75C25.3542 26.75 25.6511 26.6302 25.8906 26.3907C26.1302 26.1511 26.25 25.8542 26.25 25.5V21.9444C26.25 21.5902 26.1302 21.2934 25.8906 21.0538C25.6511 20.8142 25.3542 20.6944 25 20.6944C24.6458 20.6944 24.349 20.8142 24.1094 21.0538C23.8698 21.2934 23.75 21.5902 23.75 21.9444V25.5C23.75 25.8542 23.8698 26.1511 24.1094 26.3907C24.349 26.6302 24.6458 26.75 25 26.75Z" fill="#FBBC09"/>
</g>
</svg>
