<svg width="50" height="50" viewBox="0 0 50 50" fill="none" xmlns="http://www.w3.org/2000/svg">
<circle cx="25" cy="25" r="25" fill="#E5D3FF"/>
<mask id="mask0_2093_180" style="mask-type:alpha" maskUnits="userSpaceOnUse" x="10" y="8" width="30" height="30">
<rect x="10" y="8" width="30" height="30" fill="#FBBC09"/>
</mask>
<g mask="url(#mask0_2093_180)">
<path d="M13.6006 34.5503C13.2889 34.5503 13.0094 34.4736 12.7621 34.32C12.5146 34.1667 12.3221 33.9645 12.1846 33.7135C12.0453 33.467 11.9704 33.1985 11.9599 32.9079C11.9495 32.6174 12.0244 32.3339 12.1846 32.0572L23.5531 12.375C23.7133 12.0961 23.9254 11.8898 24.1893 11.7563C24.4531 11.6225 24.7239 11.5557 25.0018 11.5557C25.2795 11.5557 25.5497 11.6225 25.8124 11.7563C26.0751 11.8898 26.2866 12.0961 26.4468 12.375L37.8153 32.0572C37.9755 32.3339 38.0504 32.6174 38.0399 32.9079C38.0295 33.1985 37.9546 33.467 37.8153 33.7135C37.6757 33.9597 37.4828 34.1608 37.2365 34.3166C36.99 34.4724 36.711 34.5503 36.3993 34.5503H13.6006ZM24.9999 30.4469C25.366 30.4469 25.6806 30.3153 25.9437 30.0522C26.2068 29.7891 26.3384 29.4746 26.3384 29.1088C26.3384 28.7427 26.2068 28.4311 25.9437 28.1738C25.6806 27.9167 25.366 27.7882 24.9999 27.7882C24.6339 27.7882 24.3193 27.9167 24.0562 28.1738C23.7931 28.4311 23.6615 28.7427 23.6615 29.1088C23.6615 29.4746 23.7931 29.7891 24.0562 30.0522C24.3193 30.3153 24.6339 30.4469 24.9999 30.4469ZM24.9999 26.75C25.3541 26.75 25.651 26.6302 25.8906 26.3907C26.1301 26.1511 26.2499 25.8542 26.2499 25.5V21.9444C26.2499 21.5902 26.1301 21.2934 25.8906 21.0538C25.651 20.8142 25.3541 20.6944 24.9999 20.6944C24.6458 20.6944 24.3489 20.8142 24.1093 21.0538C23.8697 21.2934 23.7499 21.5902 23.7499 21.9444V25.5C23.7499 25.8542 23.8697 26.1511 24.1093 26.3907C24.3489 26.6302 24.6458 26.75 24.9999 26.75Z" fill="#8131F8"/>
</g>
</svg>
