<svg width="48" height="48" viewBox="0 0 48 48" fill="none" xmlns="http://www.w3.org/2000/svg">
<rect width="48" height="48" rx="8" fill="#A420CC"/>
<mask id="mask0_2062_115" style="mask-type:alpha" maskUnits="userSpaceOnUse" x="10" y="10" width="27" height="27">
<rect x="10" y="10" width="27" height="27" fill="white"/>
</mask>
<g mask="url(#mask0_2062_115)">
<path d="M22.375 34.4406V24.1469L13.375 18.9438V27.9719C13.375 28.3844 13.4734 28.7594 13.6703 29.0969C13.8672 29.4344 14.1437 29.7062 14.5 29.9125L22.375 34.4406ZM24.625 34.4406L32.5 29.9125C32.8563 29.7062 33.1328 29.4344 33.3297 29.0969C33.5266 28.7594 33.625 28.3844 33.625 27.9719V18.9438L24.625 24.1469V34.4406ZM29.0969 18.9719L32.4156 17.0312L24.625 12.5594C24.2688 12.3531 23.8938 12.25 23.5 12.25C23.1062 12.25 22.7312 12.3531 22.375 12.5594L20.1531 13.825L29.0969 18.9719ZM23.5 22.2063L26.8469 20.2937L17.9313 15.1187L14.5563 17.0594L23.5 22.2063Z" fill="white"/>
</g>
</svg>
