<svg width="48" height="48" viewBox="0 0 48 48" fill="none" xmlns="http://www.w3.org/2000/svg">
<g clip-path="url(#clip0_2067_123)">
<path d="M40 0H8C3.58172 0 0 3.58172 0 8V40C0 44.4183 3.58172 48 8 48H40C44.4183 48 48 44.4183 48 40V8C48 3.58172 44.4183 0 40 0Z" fill="#8131F8"/>
<mask id="mask0_2067_123" style="mask-type:alpha" maskUnits="userSpaceOnUse" x="10" y="10" width="27" height="27">
<path d="M37 10H10V37H37V10Z" fill="white"/>
</mask>
<g mask="url(#mask0_2067_123)">
<path d="M22.375 34.4406V24.1469L13.375 18.9438V27.9719C13.375 28.3844 13.4734 28.7594 13.6703 29.0969C13.8672 29.4344 14.1437 29.7062 14.5 29.9125L22.375 34.4406ZM24.625 34.4406L32.5 29.9125C32.8563 29.7062 33.1328 29.4344 33.3297 29.0969C33.5266 28.7594 33.625 28.3844 33.625 27.9719V18.9438L24.625 24.1469V34.4406ZM29.0969 18.9719L32.4156 17.0312L24.625 12.5594C24.2688 12.3531 23.8938 12.25 23.5 12.25C23.1062 12.25 22.7312 12.3531 22.375 12.5594L20.1531 13.825L29.0969 18.9719ZM23.5 22.2063L26.8469 20.2937L17.9313 15.1187L14.5563 17.0594L23.5 22.2063Z" fill="white"/>
</g>
</g>
<defs>
<clipPath id="clip0_2067_123">
<rect width="48" height="48" fill="white"/>
</clipPath>
</defs>
</svg>
