<svg width="20" height="24" viewBox="0 0 20 24" fill="none" xmlns="http://www.w3.org/2000/svg">
<path d="M8.7942 18.5306V18.9038C8.7942 19.0993 8.8667 19.2665 9.01168 19.4054C9.15685 19.5444 9.32612 19.6139 9.51949 19.6139H10.4956C10.6911 19.6139 10.8584 19.5414 10.9974 19.3965C11.1363 19.2513 11.2057 19.082 11.2057 18.8886V18.5306H12.1666C12.5082 18.5306 12.7946 18.4165 13.0257 18.1883C13.2568 17.9602 13.3724 17.6775 13.3724 17.34V13.9676C13.3724 13.626 13.2568 13.3396 13.0257 13.1085C12.7946 12.8774 12.5082 12.7618 12.1666 12.7618H9.03903V11.8009H12.1821C12.5193 11.8009 12.802 11.6854 13.03 11.4543C13.2583 11.2232 13.3724 10.9368 13.3724 10.5952C13.3724 10.2579 13.2583 9.97515 13.03 9.74693C12.802 9.51871 12.5193 9.4046 12.1821 9.4046H11.2057V9.03139C11.2057 8.83585 11.1332 8.66865 10.9882 8.52981C10.8431 8.39078 10.6738 8.32126 10.4804 8.32126H9.50433C9.30879 8.32126 9.1415 8.39078 9.00247 8.52981C8.86363 8.66865 8.7942 8.83585 8.7942 9.03139V9.4046H7.83329C7.49167 9.4046 7.20531 9.51871 6.9742 9.74693C6.74309 9.97515 6.62754 10.2579 6.62754 10.5952V13.9676C6.62754 14.3092 6.74309 14.5956 6.9742 14.8267C7.20531 15.0578 7.49167 15.1733 7.83329 15.1733H10.9609V16.1343H7.81785C7.48057 16.1343 7.19791 16.2484 6.96987 16.4766C6.74165 16.7048 6.62754 16.9877 6.62754 17.3251C6.62754 17.6624 6.74309 17.9477 6.9742 18.181C7.20531 18.414 7.49167 18.5306 7.83329 18.5306H8.7942ZM3.68358 23.3539C2.88372 23.3539 2.20528 23.0754 1.64827 22.5183C1.09125 21.9613 0.812744 21.2829 0.812744 20.483V3.51695C0.812744 2.71709 1.09125 2.03865 1.64827 1.48164C2.20528 0.924624 2.88372 0.646118 3.68358 0.646118H13.1581L19.1872 6.67514V20.483C19.1872 21.2829 18.9087 21.9613 18.3516 22.5183C17.7946 23.0754 17.1162 23.3539 16.3163 23.3539H3.68358ZM12.1666 3.51695V6.23124C12.1666 6.63009 12.3062 6.96899 12.5853 7.24795C12.8643 7.52709 13.2032 7.66666 13.602 7.66666H16.3163L12.1666 3.51695Z" fill="#605C65"/>
</svg>
