<svg width="50" height="50" viewBox="0 0 50 50" fill="none" xmlns="http://www.w3.org/2000/svg">
<circle cx="25" cy="25" r="25" fill="#DBEAFE"/>
<mask id="mask0_2037_115" style="mask-type:alpha" maskUnits="userSpaceOnUse" x="10" y="10" width="30" height="30">
<rect x="10" y="10" width="30" height="30" fill="#D9D9D9"/>
</mask>
<g mask="url(#mask0_2037_115)">
<path d="M23.75 37.845V25.6303L13.1494 19.5666V29.845C13.1494 30.4448 13.2971 30.9969 13.5925 31.5013C13.8877 32.0058 14.2921 32.408 14.8057 32.7078L23.75 37.845ZM26.25 37.845L35.1944 32.7078C35.708 32.408 36.1123 32.0058 36.4075 31.5013C36.703 30.9969 36.8507 30.4448 36.8507 29.845V19.5313L26.25 25.6128V37.845ZM31.4838 19.7391L35.4538 17.4416L26.6563 12.3844C26.1427 12.0846 25.5907 11.9347 25 11.9347C24.4094 11.9347 23.8573 12.0846 23.3438 12.3844L21.0163 13.72L31.4838 19.7391ZM24.9822 23.4741L28.9485 21.2078L18.5122 15.1575L14.4972 17.4728L24.9822 23.4741Z" fill="#006CF5"/>
</g>
</svg>
