<svg width="50" height="50" viewBox="0 0 50 50" fill="none" xmlns="http://www.w3.org/2000/svg">
<circle cx="25" cy="25" r="25" fill="#E5D3FF"/>
<mask id="mask0_2093_165" style="mask-type:alpha" maskUnits="userSpaceOnUse" x="10" y="10" width="30" height="30">
<rect x="10" y="10" width="30" height="30" fill="#D9D9D9"/>
</mask>
<g mask="url(#mask0_2093_165)">
<path d="M23.75 37.8449V25.6302L13.1494 19.5664V29.8449C13.1494 30.4447 13.2971 30.9968 13.5925 31.5011C13.8877 32.0057 14.2921 32.4079 14.8057 32.7077L23.75 37.8449ZM26.25 37.8449L35.1944 32.7077C35.708 32.4079 36.1123 32.0057 36.4075 31.5011C36.703 30.9968 36.8507 30.4447 36.8507 29.8449V19.5311L26.25 25.6127V37.8449ZM31.4838 19.7389L35.4538 17.4414L26.6563 12.3843C26.1427 12.0845 25.5907 11.9346 25 11.9346C24.4094 11.9346 23.8573 12.0845 23.3438 12.3843L21.0163 13.7199L31.4838 19.7389ZM24.9822 23.4739L28.9485 21.2077L18.5122 15.1574L14.4972 17.4727L24.9822 23.4739Z" fill="#8131F8"/>
</g>
</svg>
